<?xml version="1.0" encoding="UTF-8" standalone="no"?>
<!-- Created with Inkscape (http://www.inkscape.org/) -->

<svg
   width="3000"
   height="512"
   viewBox="0 0 3000 512"
   version="1.1"
   id="svg1"
   xml:space="preserve"
   inkscape:version="1.3.2 (091e20e, 2023-11-25, custom)"
   sodipodi:docname="header-logo.svg"
   inkscape:export-filename="logo.png"
   inkscape:export-xdpi="96"
   inkscape:export-ydpi="96"
   xmlns:inkscape="http://www.inkscape.org/namespaces/inkscape"
   xmlns:sodipodi="http://sodipodi.sourceforge.net/DTD/sodipodi-0.dtd"
   xmlns="http://www.w3.org/2000/svg"
   xmlns:svg="http://www.w3.org/2000/svg"><sodipodi:namedview
     id="namedview1"
     pagecolor="#ffffff"
     bordercolor="#000000"
     borderopacity="0.25"
     inkscape:showpageshadow="2"
     inkscape:pageopacity="0.0"
     inkscape:pagecheckerboard="0"
     inkscape:deskcolor="#d1d1d1"
     inkscape:document-units="mm"
     inkscape:zoom="0.35355339"
     inkscape:cx="1408.5567"
     inkscape:cy="898.02561"
     inkscape:window-width="2560"
     inkscape:window-height="1369"
     inkscape:window-x="-8"
     inkscape:window-y="-8"
     inkscape:window-maximized="1"
     inkscape:current-layer="text3"
     showgrid="true"><inkscape:grid
       id="grid5"
       units="px"
       originx="0"
       originy="0"
       spacingx="0.26458333"
       spacingy="0.26458333"
       empcolor="#0099e5"
       empopacity="0.30196078"
       color="#0099e5"
       opacity="0.14901961"
       empspacing="5"
       dotted="false"
       gridanglex="30"
       gridanglez="30"
       visible="true" /></sodipodi:namedview><defs
     id="defs1"><inkscape:path-effect
       effect="bspline"
       id="path-effect32"
       is_visible="true"
       lpeversion="1.3"
       weight="33.333333"
       steps="2"
       helper_size="0"
       apply_no_weight="true"
       apply_with_weight="true"
       only_selected="false"
       uniform="false" /><inkscape:path-effect
       effect="bspline"
       id="path-effect31"
       is_visible="true"
       lpeversion="1.3"
       weight="33.333333"
       steps="2"
       helper_size="0"
       apply_no_weight="true"
       apply_with_weight="true"
       only_selected="false"
       uniform="false" /><inkscape:path-effect
       effect="bspline"
       id="path-effect30"
       is_visible="true"
       lpeversion="1.3"
       weight="33.333333"
       steps="2"
       helper_size="0"
       apply_no_weight="true"
       apply_with_weight="true"
       only_selected="false"
       uniform="false" /><inkscape:path-effect
       effect="bspline"
       id="path-effect29"
       is_visible="true"
       lpeversion="1.3"
       weight="33.333333"
       steps="2"
       helper_size="0"
       apply_no_weight="true"
       apply_with_weight="true"
       only_selected="false"
       uniform="false" /><inkscape:path-effect
       effect="fillet_chamfer"
       id="path-effect28"
       is_visible="true"
       lpeversion="1"
       nodesatellites_param="F,0,0,1,0,0.26458333,0,1 @ F,0,0,1,0,0.26458333,0,1 @ F,0,0,1,0,0.26458333,0,1 @ F,0,0,1,0,0.26458333,0,1"
       radius="1"
       unit="px"
       method="auto"
       mode="F"
       chamfer_steps="1"
       flexible="false"
       use_knot_distance="true"
       apply_no_radius="true"
       apply_with_radius="true"
       only_selected="false"
       hide_knots="false" /><inkscape:path-effect
       effect="fillet_chamfer"
       id="path-effect27"
       is_visible="true"
       lpeversion="1"
       nodesatellites_param="F,0,0,1,0,0.26458333,0,1 @ F,0,0,1,0,0.26458333,0,1 @ F,0,0,1,0,0.26458333,0,1 @ F,0,0,1,0,0.26458333,0,1 @ F,0,0,1,0,0.26458333,0,1 @ F,0,0,1,0,0.26458333,0,1 @ F,0,0,1,0,0.26458333,0,1 @ F,0,0,1,0,0.26458333,0,1 @ F,0,0,1,0,0.26458333,0,1 @ F,0,0,1,0,0.26458333,0,1 @ F,0,0,1,0,0.26458333,0,1 @ F,0,0,1,0,0.26458333,0,1 @ F,0,0,1,0,0.26458333,0,1 @ F,0,0,1,0,0.26458333,0,1 @ F,0,0,1,0,0.26458333,0,1 @ F,0,0,1,0,0.26458333,0,1 @ F,0,0,1,0,0.26458333,0,1 @ F,0,0,1,0,0.26458333,0,1 @ F,0,0,1,0,0.26458333,0,1 @ F,0,0,1,0,0.26458333,0,1 @ F,0,0,1,0,0.26458333,0,1 @ F,0,0,1,0,0.26458333,0,1 @ F,0,0,1,0,0.26458333,0,1 @ F,0,0,1,0,0.26458333,0,1 @ F,0,0,1,0,0.26458333,0,1 @ F,0,0,1,0,0.26458333,0,1 @ F,0,0,1,0,0.26458333,0,1 @ F,0,0,1,0,0.26458333,0,1 @ F,0,0,1,0,0.26458333,0,1 @ F,0,0,1,0,0.26458333,0,1 @ F,0,0,1,0,0.26458333,0,1 @ F,0,0,1,0,0.26458333,0,1 @ F,0,0,1,0,0.26458333,0,1 @ F,0,0,1,0,0.26458333,0,1 @ F,0,0,1,0,0.26458333,0,1 @ F,0,0,1,0,0.26458333,0,1 @ F,0,0,1,0,0.26458333,0,1 @ F,0,0,1,0,0.26458333,0,1 @ F,0,0,1,0,0.26458333,0,1 @ F,0,0,1,0,0.26458333,0,1"
       radius="1"
       unit="px"
       method="auto"
       mode="F"
       chamfer_steps="1"
       flexible="false"
       use_knot_distance="true"
       apply_no_radius="true"
       apply_with_radius="true"
       only_selected="false"
       hide_knots="false" /><inkscape:path-effect
       effect="bspline"
       id="path-effect26"
       is_visible="true"
       lpeversion="1.3"
       weight="33.333333"
       steps="2"
       helper_size="0"
       apply_no_weight="true"
       apply_with_weight="true"
       only_selected="false"
       uniform="false" /><inkscape:path-effect
       effect="bspline"
       id="path-effect2"
       is_visible="true"
       lpeversion="1.3"
       weight="33.333333"
       steps="2"
       helper_size="0"
       apply_no_weight="true"
       apply_with_weight="true"
       only_selected="false"
       uniform="false" /><inkscape:path-effect
       effect="bspline"
       id="path-effect1"
       is_visible="true"
       lpeversion="1.3"
       weight="33.333333"
       steps="2"
       helper_size="0"
       apply_no_weight="true"
       apply_with_weight="true"
       only_selected="false"
       uniform="false" /><inkscape:path-effect
       effect="bspline"
       id="path-effect25"
       is_visible="true"
       lpeversion="1.3"
       weight="33.333333"
       steps="2"
       helper_size="0"
       apply_no_weight="true"
       apply_with_weight="true"
       only_selected="false"
       uniform="false" /><inkscape:path-effect
       effect="bspline"
       id="path-effect24"
       is_visible="true"
       lpeversion="1.3"
       weight="33.333333"
       steps="2"
       helper_size="0"
       apply_no_weight="true"
       apply_with_weight="true"
       only_selected="false"
       uniform="false" /><inkscape:path-effect
       effect="bspline"
       id="path-effect23"
       is_visible="true"
       lpeversion="1.3"
       weight="33.333333"
       steps="2"
       helper_size="0"
       apply_no_weight="true"
       apply_with_weight="true"
       only_selected="false"
       uniform="false" /><inkscape:path-effect
       effect="bspline"
       id="path-effect22"
       is_visible="true"
       lpeversion="1.3"
       weight="33.333333"
       steps="2"
       helper_size="0"
       apply_no_weight="true"
       apply_with_weight="true"
       only_selected="false"
       uniform="false" /><inkscape:path-effect
       effect="bspline"
       id="path-effect21"
       is_visible="true"
       lpeversion="1.3"
       weight="33.333333"
       steps="2"
       helper_size="0"
       apply_no_weight="true"
       apply_with_weight="true"
       only_selected="false"
       uniform="false" /><inkscape:path-effect
       effect="bspline"
       id="path-effect20"
       is_visible="true"
       lpeversion="1.3"
       weight="33.333333"
       steps="2"
       helper_size="0"
       apply_no_weight="true"
       apply_with_weight="true"
       only_selected="false"
       uniform="false" /><inkscape:path-effect
       effect="bspline"
       id="path-effect19"
       is_visible="true"
       lpeversion="1.3"
       weight="33.333333"
       steps="2"
       helper_size="0"
       apply_no_weight="true"
       apply_with_weight="true"
       only_selected="false"
       uniform="false" /><inkscape:path-effect
       effect="bspline"
       id="path-effect18"
       is_visible="true"
       lpeversion="1.3"
       weight="33.333333"
       steps="2"
       helper_size="0"
       apply_no_weight="true"
       apply_with_weight="true"
       only_selected="false"
       uniform="false" /><inkscape:path-effect
       effect="bspline"
       id="path-effect17"
       is_visible="true"
       lpeversion="1.3"
       weight="33.333333"
       steps="2"
       helper_size="0"
       apply_no_weight="true"
       apply_with_weight="true"
       only_selected="false"
       uniform="false" /><inkscape:path-effect
       effect="bspline"
       id="path-effect16"
       is_visible="true"
       lpeversion="1.3"
       weight="33.333333"
       steps="2"
       helper_size="0"
       apply_no_weight="true"
       apply_with_weight="true"
       only_selected="false"
       uniform="false" /><inkscape:path-effect
       effect="bspline"
       id="path-effect15"
       is_visible="true"
       lpeversion="1.3"
       weight="33.333333"
       steps="2"
       helper_size="0"
       apply_no_weight="true"
       apply_with_weight="true"
       only_selected="false"
       uniform="false" /><inkscape:path-effect
       effect="bspline"
       id="path-effect14"
       is_visible="true"
       lpeversion="1.3"
       weight="33.333333"
       steps="2"
       helper_size="0"
       apply_no_weight="true"
       apply_with_weight="true"
       only_selected="false"
       uniform="false" /><inkscape:path-effect
       effect="bspline"
       id="path-effect13"
       is_visible="true"
       lpeversion="1.3"
       weight="33.333333"
       steps="2"
       helper_size="0"
       apply_no_weight="true"
       apply_with_weight="true"
       only_selected="false"
       uniform="false" /><inkscape:path-effect
       effect="bspline"
       id="path-effect12"
       is_visible="true"
       lpeversion="1.3"
       weight="33.333333"
       steps="2"
       helper_size="0"
       apply_no_weight="true"
       apply_with_weight="true"
       only_selected="false"
       uniform="false" /><inkscape:path-effect
       effect="bspline"
       id="path-effect11"
       is_visible="true"
       lpeversion="1.3"
       weight="33.333333"
       steps="2"
       helper_size="0"
       apply_no_weight="true"
       apply_with_weight="true"
       only_selected="false"
       uniform="false" /><inkscape:path-effect
       effect="bspline"
       id="path-effect10"
       is_visible="true"
       lpeversion="1.3"
       weight="33.333333"
       steps="2"
       helper_size="0"
       apply_no_weight="true"
       apply_with_weight="true"
       only_selected="false"
       uniform="false" /><inkscape:path-effect
       effect="bspline"
       id="path-effect9"
       is_visible="true"
       lpeversion="1.3"
       weight="33.333333"
       steps="2"
       helper_size="0"
       apply_no_weight="true"
       apply_with_weight="true"
       only_selected="false"
       uniform="false" /><inkscape:path-effect
       effect="bspline"
       id="path-effect8"
       is_visible="true"
       lpeversion="1.3"
       weight="33.333333"
       steps="2"
       helper_size="0"
       apply_no_weight="true"
       apply_with_weight="true"
       only_selected="false"
       uniform="false" /><inkscape:path-effect
       effect="bspline"
       id="path-effect7"
       is_visible="true"
       lpeversion="1.3"
       weight="33.333333"
       steps="2"
       helper_size="0"
       apply_no_weight="true"
       apply_with_weight="true"
       only_selected="false"
       uniform="false" /><inkscape:path-effect
       effect="bspline"
       id="path-effect6"
       is_visible="true"
       lpeversion="1.3"
       weight="33.333333"
       steps="2"
       helper_size="0"
       apply_no_weight="true"
       apply_with_weight="true"
       only_selected="false"
       uniform="false" /><inkscape:path-effect
       effect="bspline"
       id="path-effect5"
       is_visible="true"
       lpeversion="1.3"
       weight="33.333333"
       steps="2"
       helper_size="0"
       apply_no_weight="true"
       apply_with_weight="true"
       only_selected="false"
       uniform="false" /><inkscape:path-effect
       effect="bspline"
       id="path-effect4"
       is_visible="true"
       lpeversion="1.3"
       weight="33.333333"
       steps="2"
       helper_size="0"
       apply_no_weight="true"
       apply_with_weight="true"
       only_selected="false"
       uniform="false" /><inkscape:path-effect
       effect="bspline"
       id="path-effect3"
       is_visible="true"
       lpeversion="1.3"
       weight="33.333333"
       steps="2"
       helper_size="0"
       apply_no_weight="true"
       apply_with_weight="true"
       only_selected="false"
       uniform="false" /></defs><g
     id="text3"
     transform="rotate(-90)"
     style="fill:#2b329c;fill-opacity:1;stroke:#000000;stroke-width:0.2;stroke-linecap:round;stroke-linejoin:round;stroke-dasharray:none;stroke-opacity:0.762563;paint-order:stroke fill markers"
     inkscape:label="Tests"><path
       style="color:#000000;-inkscape-font-specification:'Ink Free';display:inline;fill:#137ab8;fill-opacity:1;stroke:#105f8f;stroke-width:11.3386;stroke-linecap:butt;stroke-linejoin:miter;stroke-dasharray:none;stroke-opacity:1;paint-order:stroke fill markers"
       d="m -266.17688,63.420422 c -5.97119,0 -12.22354,2.155657 -16.91331,5.907472 -5.23772,4.190126 -8.72895,11.583813 -8.72895,18.2359 0,7.688102 -1.57933,31.152446 -4.81832,67.777786 -0.006,0.0499 -0.008,0.10053 -0.0153,0.15046 l -2.21985,28.92536 c -0.78021,7.80135 -1.65017,19.70799 -2.64515,35.8442 -0.002,0.0397 -0.008,0.0492 -0.008,0.088 -2.03437,25.01502 -3.24001,36.98928 -4.21665,45.91133 -35.57207,4.11926 -61.95091,6.51871 -80.79606,7.56719 l 1.91142,-51.5594 c 0.37403,-7.65728 0.93662,-18.73746 1.6856,-33.2198 l -0.0153,0.29042 c 1.25682,-17.09181 1.90867,-28.20138 1.90867,-34.70317 0,-6.08913 -0.5729,-11.84301 -1.85164,-17.27639 -0.80987,-3.44412 -2.05678,-7.04703 -5.12422,-10.52349 -3.06747,-3.47648 -8.62361,-6.08382 -13.41764,-6.08382 -6.67377,0 -13.47526,2.57628 -18.5575,6.78918 -5.5228,4.54197 -8.96235,12.25031 -8.96235,19.22652 v 13.86364 c 7.6e-4,0.0964 0.002,0.19361 0.006,0.29043 0.49758,22.86171 0.74722,48.7508 0.74722,77.65297 0,9.1664 -0.69392,23.31693 -1.37962,37.37944 -5.80241,-0.1189 -10.61657,-0.14466 -18.18406,-0.43564 -0.0847,-0.002 -0.17272,-0.006 -0.25896,-0.006 l -19.85919,-0.37334 c -0.0845,-0.002 -0.17004,-0.006 -0.25388,-0.006 -6.29684,0 -13.0296,0.13951 -19.09165,6.6232 -4.7291,4.57145 -6.55063,11.06421 -6.55063,16.39987 0,7.93899 4.24524,16.60775 10.80884,21.29597 0.0508,0.0363 0.10325,0.0727 0.15554,0.10897 5.73656,3.97147 12.70508,5.73632 19.54811,5.73632 9.78344,0 20.0232,-0.86231 30.47095,-2.11092 -0.22766,4.20063 -0.31566,5.90637 -0.63299,11.71641 -0.74215,13.59704 -1.73336,27.70644 -2.97199,42.32223 -0.008,0.11393 -0.0153,0.22813 -0.0153,0.3423 -0.21326,3.62218 -0.79461,8.817 -1.75814,15.32104 -0.0508,0.35279 -0.0845,0.70755 -0.10916,1.06325 -0.23694,3.55184 -0.60084,7.78864 -1.0892,12.67593 -0.002,0.0202 -0.002,0.0416 -0.006,0.0618 -0.51705,5.42432 -0.80902,9.26772 -0.80902,12.49957 0,5.80894 1.04807,11.55737 3.46976,16.80442 0.1126,0.24754 0.23441,0.49133 0.3622,0.73125 2.99991,5.57137 9.80771,11.85642 18.05956,11.85642 6.83202,0 10.94838,-2.66833 15.14987,-5.57036 5.16932,-3.34254 11.24441,-8.75233 11.24441,-17.82617 0,-3.64545 -0.59576,-6.72563 -1.46265,-10.48198 l 0.18607,0.96985 c -0.43749,-2.84298 -0.59659,-4.95838 -0.59659,-5.85038 0,-4.19234 0.60507,-19.08719 1.85156,-42.76827 1.01016,-19.18767 1.88288,-34.31623 2.72811,-48.74317 8.86063,-0.62461 17.34045,-1.18945 29.92645,-2.44807 17.48702,-1.74868 28.73184,-2.87162 33.7281,-3.37125 0.14371,-0.0153 0.28774,-0.0321 0.43076,-0.0515 5.54995,-0.73994 10.31268,-1.1084 15.46629,-1.65969 -0.47983,7.93273 -0.8361,14.98829 -1.60262,24.95249 -1.23948,16.1133 -2.37251,27.64984 -3.27791,33.98741 -0.0153,0.13817 -0.034,0.27628 -0.0508,0.41491 -0.32073,2.88737 -1.02057,4.46894 -1.60268,5.34215 -1.18813,1.78215 -2.18018,3.38522 -3.0756,5.17617 -0.89547,1.79097 -2.15248,3.2589 -2.15248,8.18436 0,6.76318 1.83813,13.14274 4.69908,20.29496 0.034,0.0821 0.0677,0.1626 0.0981,0.24378 1.68334,3.97895 3.4298,7.42043 6.2135,10.71023 2.78363,3.2898 7.65323,7.13669 14.25778,7.13669 7.51399,0 15.68423,-4.68126 19.67259,-10.84506 3.98832,-6.16383 5.33598,-12.89054 5.9334,-20.5076 v -0.006 l 2.24577,-28.85278 c 0.006,-0.0695 0.01,-0.13836 0.0153,-0.20741 l 0.73641,-11.76311 1.09953,-11.38963 c 0.008,-0.0744 0.0153,-0.14867 0.0221,-0.22306 0.50022,-6.25238 1.12787,-14.12356 1.87754,-23.61953 0.40331,-5.10821 0.54633,-9.3587 0.80916,-13.9985 0.16641,-0.006 0.17767,-0.002 0.34747,-0.01 0.16259,-0.008 0.32521,-0.0172 0.4876,-0.0313 7.22211,-0.55557 47.38954,-7.29125 53.25233,-9.23068 4.15346,-1.28315 8.23644,-3.14323 11.79422,-6.70101 3.6135,-3.61352 6.04749,-9.36348 6.04749,-14.54307 0,-6.37807 -2.3771,-8.53649 -3.95213,-10.59613 -1.57501,-2.0596 -3.23027,-3.71824 -5.19174,-5.52885 -4.49442,-4.14868 -9.81472,-8.0184 -17.62388,-8.0184 -2.75305,0 -39.0184,5.99794 -41.56186,6.58036 0.41313,-5.57473 0.63426,-8.18716 1.20328,-16.15091 l 0.0153,-0.18664 c 1.49703,-17.47111 2.99533,-35.79659 4.49154,-54.99814 0.002,-0.0288 0.002,-0.0592 0.006,-0.0882 0.20098,-2.81342 1.72947,-20.53796 4.45526,-51.26901 l 0.0221,-0.21257 c 2.48627,-23.63314 3.80174,-37.546889 3.80174,-45.019227 0,-5.509818 -0.38793,-10.519736 -3.1586,-15.907135 -2.7777,-5.387358 -10.32245,-10.481968 -16.87369,-10.481968 z m 142.11346,65.946928 c -15.31711,0 -29.68073,7.6073 -42.25481,19.89559 -0.0363,0.0364 -0.0728,0.0728 -0.10889,0.10891 -11.90648,11.9065 -22.16469,26.58726 -30.92737,43.84705 -0.0134,0.0237 -0.0237,0.049 -0.0365,0.0727 -8.47654,16.95301 -15.7321,36.60422 -21.90798,58.9918 -6.2348,22.60126 -9.47061,43.20776 -9.47061,61.98437 0,27.72901 8.28232,51.27005 25.68377,67.14504 0.0328,0.0279 0.0653,0.0559 0.0985,0.0828 16.82737,15.05604 38.94332,22.49405 63.93458,22.49405 23.99386,0 46.631161,-7.73969 66.403348,-22.49924 0.0313,-0.0221 0.06178,-0.0448 0.09325,-0.0677 18.524424,-14.08898 33.569384,-28.78404 44.993292,-44.28789 0.07786,-0.1042 0.153763,-0.20978 0.228232,-0.3164 2.475069,-3.57509 4.452389,-6.73679 6.016392,-9.86481 1.564008,-3.12802 3.091181,-5.95506 3.091181,-11.18742 0,-3.10494 0.538969,-6.20115 -2.982255,-11.48297 -3.898916,-5.84834 -10.333384,-7.03816 -14.045173,-7.03816 -8.494676,0 -10.815596,4.18402 -12.888568,6.60246 -2.072971,2.4185 -3.648271,4.9193 -5.383635,7.95619 -1.374349,2.28695 -2.502148,4.12386 -3.231218,5.26951 -0.191244,0.30068 -0.403995,0.51078 -0.653465,0.80908 -13.512094,12.68687 -27.103896,23.05578 -40.740325,31.01037 -0.02788,0.0153 -0.05494,0.0313 -0.08304,0.0466 -12.672446,7.51753 -26.576006,11.25999 -42.690456,11.25999 -9.33801,0 -16.69883,-2.10246 -23.20462,-6.17199 -6.51104,-4.23033 -11.3727,-9.61698 -15.1136,-16.85109 -3.52834,-7.30427 -5.3629,-15.36662 -5.3629,-24.78131 0,-15.08039 1.97124,-30.88057 5.99566,-47.45172 4.08324,-16.81338 9.09573,-31.77982 14.95282,-44.9051 7.47033,-16.47345 15.07981,-28.27576 21.86127,-35.25815 6.7874,-6.98847 11.89138,-8.99346 16.61252,-8.99346 1.30022,0 1.90605,0.0974 3.66688,1.62339 0.13256,0.115 0.26751,0.22738 0.40459,0.33714 1.63991,1.31192 2.35345,2.37482 2.94596,4.6264 0.0101,0.0381 0.0221,0.0753 0.0313,0.11407 1.16297,4.26422 1.77898,8.93464 1.38588,12.74989 -0.3931,3.81525 -0.47312,4.05575 -0.54554,4.29828 -0.85444,2.84822 -1.68564,3.51224 -1.68564,8.68749 0,3.09119 0.68806,7.50097 4.10777,11.34817 3.41972,3.84717 8.67884,5.30064 12.16761,5.30064 7.138387,0 9.472551,-3.21761 11.265188,-5.01022 1.792619,-1.79261 3.001555,-3.47539 4.284073,-5.39919 2.723973,-4.08594 4.866111,-8.65753 6.64398,-13.66135 2.202327,-5.73897 3.454236,-11.70038 3.454236,-17.68612 0,-13.74416 -3.81481,-26.60755 -11.690463,-36.84524 -8.111855,-10.86407 -21.423014,-16.90294 -35.315204,-16.90294 z m 19.53771,27.6443 0.39942,0.33198 c -0.0652,-0.0567 -0.15724,-0.0787 -0.22307,-0.13482 -0.0686,-0.0559 -0.088,-0.19708 -0.17628,-0.19708 z m -183.67838,216.05592 -0.0508,0.41491 c 0.008,-0.0676 0.0153,-0.24804 0.034,-0.31642 0.002,-0.034 0.0153,-0.0653 0.0153,-0.0985 z"
       id="path11"
       sodipodi:nodetypes="csscccsccccccsssscsccsccccccsccscsccccccsccscsccsscscccsccsssccssscccccccsccccsssssccsccccsscccccscssccsccccssssscscccsccsscssccccccssssscsccccccscccccc"
       inkscape:label="HC5" /><path
       d="m 583.12966,230.54904 v 57.82239 h 88.24799 v -57.82239 q 0,-12.39052 5.5069,-18.58577 5.64456,-6.19526 14.73094,-6.19526 9.22405,0 14.86861,6.19526 5.78224,6.05758 5.78224,18.58577 v 159.01158 q 0,12.52818 -5.78224,18.72344 -5.78224,6.19526 -14.86861,6.19526 -9.22405,0 -14.73094,-6.19526 -5.5069,-6.33293 -5.5069,-18.72344 v -67.87248 h -88.24799 v 67.87248 q 0,12.52818 -5.78223,18.72344 -5.78224,6.19526 -14.86862,6.19526 -9.22405,0 -14.73094,-6.19526 -5.5069,-6.33293 -5.5069,-18.72344 V 230.54904 q 0,-12.39052 5.36922,-18.58577 5.5069,-6.19526 14.86862,-6.19526 9.22405,0 14.86862,6.19526 5.78223,6.05758 5.78223,18.58577 z m 205.13183,188.61114 3.44181,-8.39802 -46.25792,-116.47082 q -4.26784,-10.05008 -4.26784,-14.59327 0,-4.81853 2.4781,-8.9487 2.47811,-4.13017 6.74595,-6.60828 4.40551,-2.4781 9.08638,-2.4781 8.12266,0 12.25284,5.23155 4.13017,5.09388 7.29663,14.73094 l 31.80232,92.51583 30.15025,-86.04523 q 3.57948,-10.4631 6.4706,-16.38301 2.89112,-5.91991 6.05758,-7.98499 3.30414,-2.06509 9.22405,-2.06509 4.26784,0 8.12267,2.34043 3.9925,2.20276 6.05758,6.05758 2.20276,3.85483 2.20276,8.12267 -0.55069,2.61578 -1.78974,7.43431 -1.23905,4.81853 -3.02879,9.77474 l -49.01136,128.31064 q -6.33293,16.9337 -12.39052,26.57077 -6.05758,9.63707 -16.10766,14.73094 -9.91241,5.23155 -26.84612,5.23155 -16.52068,0 -24.78102,-3.57948 -8.26034,-3.57948 -8.26034,-13.07887 0,-6.4706 3.85482,-10.05009 3.9925,-3.4418 11.70215,-3.4418 3.0288,0 5.91992,0.82603 3.57948,0.82603 6.19525,0.82603 6.4706,0 10.18776,-1.92741 3.71715,-1.92741 6.60827,-6.74595 3.02879,-4.68086 6.88362,-13.9049 z M 941.07783,227.2449 v 57.40938 q 10.60078,-11.01379 21.61457,-16.79603 11.01378,-5.91991 27.25912,-5.91991 18.72348,0 32.76598,8.9487 14.1803,8.81103 21.89,25.74473 7.8473,16.79603 7.8473,39.92499 0,17.07137 -4.4055,31.3893 -4.2679,14.18025 -12.5282,24.64335 -8.2604,10.4631 -20.1002,16.24534 -11.7021,5.64457 -25.88239,5.64457 -8.67336,0 -16.38301,-2.06509 -7.57198,-2.06509 -12.94121,-5.36922 -5.36922,-3.44181 -9.22405,-7.02129 -3.71715,-3.57948 -9.91241,-10.73845 v 3.71716 q 0,10.60077 -5.09387,16.10766 -5.09388,5.36923 -12.94121,5.36923 -7.98499,0 -12.80353,-5.36923 -4.68086,-5.50689 -4.68086,-16.10766 V 228.89697 q 0,-11.42681 4.54319,-17.20905 4.68086,-5.91991 12.9412,-5.91991 8.67336,0 13.35422,5.64457 4.68086,5.50689 4.68086,15.83232 z m 1.78975,111.65229 q 0,22.44059 10.18775,34.55576 10.32543,11.9775 26.98378,11.9775 14.18026,0 24.36799,-12.25284 10.3254,-12.39052 10.3254,-35.3818 0,-14.86862 -4.2678,-25.60706 -4.2678,-10.73845 -12.11516,-16.52069 -7.84733,-5.91991 -18.31043,-5.91991 -10.73844,0 -19.13645,5.91991 -8.39802,5.78224 -13.21655,16.93371 -4.81853,11.01378 -4.81853,26.29542 z m 177.04662,21.33921 v 31.3893 q 0,11.42681 -5.3692,17.20905 -5.3693,5.64457 -13.6296,5.64457 -8.1227,0 -13.3542,-5.78224 -5.2316,-5.78224 -5.2316,-17.07138 V 286.99471 q 0,-25.33172 18.3105,-25.33172 9.3617,0 13.4919,5.91991 4.1301,5.91991 4.5431,17.48439 6.746,-11.56448 13.7673,-17.48439 7.1589,-5.91991 18.9988,-5.91991 11.8398,0 22.9912,5.91991 11.1515,5.91991 11.1515,15.69465 0,6.88362 -4.8185,11.42681 -4.6809,4.40551 -10.1878,4.40551 -2.0651,0 -10.0501,-2.4781 -7.8473,-2.61577 -13.9049,-2.61577 -8.2603,0 -13.4919,4.40551 -5.2315,4.26785 -8.1226,12.80353 -2.8912,8.53569 -3.9925,20.37551 -1.1014,11.70215 -1.1014,28.63585 z m 123.7675,-77.23419 V 391.6257 q 0,11.28914 -5.3693,17.07138 -5.3692,5.78224 -13.6295,5.78224 -8.2604,0 -13.4919,-5.91992 -5.0939,-5.91991 -5.0939,-16.9337 V 284.10359 q 0,-11.15147 5.0939,-16.79603 5.2315,-5.64457 13.4919,-5.64457 8.2603,0 13.6295,5.64457 5.3693,5.64456 5.3693,15.69465 z m -18.5858,-38.82361 q -7.8473,0 -13.4919,-4.81853 -5.5069,-4.81854 -5.5069,-13.62957 0,-7.98499 5.6446,-13.07887 5.7822,-5.23155 13.3542,-5.23155 7.2966,0 12.9412,4.68086 5.6446,4.68086 5.6446,13.62956 0,8.67336 -5.5069,13.62957 -5.5069,4.81853 -13.0789,4.81853 z m 160.3883,148.82383 v -3.71716 q -7.5719,8.67336 -15.0062,14.18026 -7.2967,5.36922 -15.97,8.12267 -8.5357,2.89112 -18.7235,2.89112 -13.4919,0 -25.0564,-5.64457 -11.4268,-5.78224 -19.8248,-16.38301 -8.398,-10.60078 -12.8035,-24.9187 -4.2678,-14.31793 -4.2678,-30.97628 0,-35.24413 17.209,-54.93128 17.209,-19.68714 45.2942,-19.68714 16.2453,0 27.3968,5.64456 11.1515,5.5069 21.7522,17.07138 v -55.48197 q 0,-11.56448 4.5432,-17.48439 4.6809,-5.91991 13.2166,-5.91991 8.5357,0 13.0788,5.50689 4.6809,5.36923 4.6809,15.97 v 165.75753 q 0,10.73844 -4.9562,16.10766 -4.9562,5.36923 -12.8035,5.36923 -7.7097,0 -12.8036,-5.5069 -4.9562,-5.64457 -4.9562,-15.96999 z m -73.93,-55.20662 q 0,15.28163 4.6808,26.02008 4.8186,10.73844 13.0789,16.24533 8.2604,5.36923 18.0351,5.36923 9.9124,0 18.0351,-5.09388 8.2603,-5.23155 13.0788,-15.83232 4.9563,-10.73845 4.9563,-26.70844 0,-15.00629 -4.9563,-25.74473 -4.8185,-10.87612 -13.2165,-16.52069 -8.2603,-5.78224 -18.1728,-5.78224 -10.3254,0 -18.448,5.91991 -8.1227,5.78224 -12.6659,16.79603 -4.4055,10.87612 -4.4055,25.33172 z m 392.2285,9.49939 q 0,9.63707 -4.8185,20.9262 -4.6809,11.15146 -14.8686,22.02758 -10.1878,10.73844 -26.0201,17.48439 -15.8323,6.74595 -36.8962,6.74595 -15.97,0 -29.0489,-3.0288 -13.0788,-3.02879 -23.8173,-9.36172 -10.6007,-6.4706 -19.5495,-16.9337 -7.9849,-9.49939 -13.6295,-21.20154 -5.6446,-11.83983 -8.5357,-25.19405 -2.7535,-13.35421 -2.7535,-28.3605 0,-24.36801 7.0213,-43.64214 7.159,-19.27413 20.3755,-32.9037 13.2166,-13.76723 30.9763,-20.9262 17.7598,-7.15896 37.8599,-7.15896 24.5057,0 43.6422,9.77474 19.1364,9.77474 29.3242,24.23033 10.1877,14.31793 10.1877,27.12146 0,7.02129 -4.9562,12.39051 -4.9562,5.36923 -11.9775,5.36923 -7.8473,0 -11.8398,-3.71716 -3.8548,-3.71715 -8.6733,-12.80353 -7.985,-15.00629 -18.8612,-22.44059 -10.7384,-7.43431 -26.5707,-7.43431 -25.1941,0 -40.2004,19.13646 -14.8686,19.13646 -14.8686,54.38058 0,23.54198 6.6083,39.23663 6.6083,15.55697 18.7234,23.26662 12.1152,7.70966 28.3606,7.70966 17.622,0 29.7372,-8.67336 12.2528,-8.81103 18.4481,-25.74473 2.6158,-7.985 6.4706,-12.94121 3.8548,-5.09387 12.3905,-5.09387 7.2966,0 12.5282,5.09387 5.2315,5.09388 5.2315,12.66586 z m 91.6898,-22.57827 h -14.318 v 64.84369 q 0,12.80353 -5.6445,18.86111 -5.6446,6.05759 -14.731,6.05759 -9.7747,0 -15.1439,-6.33293 -5.3693,-6.33293 -5.3693,-18.58577 V 234.26619 q 0,-13.21655 5.92,-19.13646 5.9199,-5.91991 19.1364,-5.91991 h 66.4958 q 13.7672,0 23.5419,1.23905 9.7748,1.10138 17.6221,4.68086 9.4994,3.9925 16.796,11.42681 7.2967,7.43431 11.0138,17.34672 3.8548,9.77473 3.8548,20.78852 0,22.57827 -12.8035,36.07016 -12.6658,13.49189 -38.5482,19.13646 10.8761,5.78224 20.7885,17.07137 9.9124,11.28914 17.622,24.09267 7.8474,12.66586 12.1152,22.99128 4.4055,10.18776 4.4055,14.04258 0,3.9925 -2.6157,7.985 -2.4781,3.85483 -6.8837,6.05759 -4.4055,2.34043 -10.1877,2.34043 -6.8836,0 -11.5645,-3.30414 -4.6809,-3.16647 -8.1227,-8.12267 -3.3041,-4.95621 -9.0863,-14.59327 l -16.3831,-27.25913 q -8.811,-15.00629 -15.8323,-22.85361 -6.8836,-7.84733 -14.0426,-10.73845 -7.1589,-2.89112 -18.035,-2.89112 z m 23.4043,-84.80617 h -37.7223 v 55.48196 h 36.6209 q 14.7309,0 24.781,-2.4781 10.0501,-2.61578 15.2816,-8.67336 5.3693,-6.19526 5.3693,-16.9337 0,-8.39802 -4.2679,-14.73095 -4.2678,-6.4706 -11.8398,-9.63706 -7.159,-3.02879 -28.2228,-3.02879 z m 192.6037,140.70115 -32.353,-128.58599 v 139.32444 q 0,11.56448 -5.2315,17.34672 -5.0939,5.78224 -13.6296,5.78224 -8.2603,0 -13.4919,-5.64457 -5.2315,-5.78224 -5.2315,-17.48439 V 231.65041 q 0,-13.21654 6.8836,-17.75973 6.8836,-4.68086 18.5857,-4.68086 h 12.6659 q 11.4268,0 16.5207,2.06508 5.2315,2.06509 7.7096,7.43431 2.4781,5.36922 5.6446,17.48439 l 29.3242,110.55091 29.3242,-110.55091 q 3.1665,-12.11517 5.6446,-17.48439 2.4781,-5.36922 7.572,-7.43431 5.2315,-2.06508 16.6583,-2.06508 h 12.6659 q 11.7021,0 18.5858,4.68086 6.8836,4.54319 6.8836,17.75973 v 159.69995 q 0,11.56448 -5.2316,17.34672 -5.0939,5.78224 -13.7672,5.78224 -8.1227,0 -13.3542,-5.78224 -5.2316,-5.78224 -5.2316,-17.34672 V 252.02592 l -32.353,128.58599 q -3.1664,12.52819 -5.2315,18.4481 -1.9274,5.78224 -7.2967,10.60077 -5.3692,4.81854 -14.8686,4.81854 -7.1589,0 -12.1152,-3.16647 -4.9562,-3.02879 -7.7096,-7.84732 -2.7535,-4.81854 -4.4055,-10.60078 -1.5144,-5.91991 -3.1665,-12.25284 z m 368.2736,-137.67236 h -44.6059 v 146.62107 q 0,12.66585 -5.6445,18.86111 -5.6446,6.05759 -14.5933,6.05759 -9.0864,0 -14.8686,-6.19526 -5.6446,-6.19526 -5.6446,-18.72344 V 242.93955 h -44.6058 q -10.4631,0 -15.557,-4.54319 -5.0939,-4.68086 -5.0939,-12.25284 0,-7.84732 5.2316,-12.39051 5.3692,-4.54319 15.4193,-4.54319 h 129.9627 q 10.6008,0 15.6946,4.68086 5.2316,4.68086 5.2316,12.25284 0,7.57198 -5.2316,12.25284 -5.2315,4.54319 -15.6946,4.54319 z m 165.4821,95.1316 q 0,16.79603 -5.2316,30.97628 -5.2315,14.18026 -15.1439,24.36801 -9.9124,10.18776 -23.6797,15.69465 -13.7672,5.36923 -30.9762,5.36923 -17.0714,0 -30.701,-5.5069 -13.6296,-5.50689 -23.6796,-15.69465 -9.9124,-10.32543 -15.144,-24.23034 -5.0939,-14.04258 -5.0939,-30.97628 0,-17.07137 5.2316,-31.25162 5.2315,-14.18026 15.0063,-24.23034 9.7747,-10.05008 23.6796,-15.41931 13.9049,-5.50689 30.701,-5.50689 17.0713,0 30.9762,5.50689 13.9049,5.5069 23.8174,15.69465 9.9124,10.18776 15.0062,24.23034 5.2316,14.04258 5.2316,30.97628 z m -37.7222,0 q 0,-22.99128 -10.1878,-35.79481 -10.0501,-12.80353 -27.1214,-12.80353 -11.0138,0 -19.4119,5.78224 -8.398,5.64456 -12.9412,16.79603 -4.5431,11.15146 -4.5431,26.02007 0,14.73095 4.4055,25.74474 4.5432,11.01378 12.8035,16.9337 8.398,5.78224 19.6872,5.78224 17.0713,0 27.1214,-12.80353 10.1878,-12.94121 10.1878,-35.65715 z m 208.023,0 q 0,16.79603 -5.2316,30.97628 -5.2315,14.18026 -15.1439,24.36801 -9.9124,10.18776 -23.6797,15.69465 -13.7672,5.36923 -30.9763,5.36923 -17.0713,0 -30.7009,-5.5069 -13.6296,-5.50689 -23.6797,-15.69465 -9.9124,-10.32543 -15.1439,-24.23034 -5.0939,-14.04258 -5.0939,-30.97628 0,-17.07137 5.2316,-31.25162 5.2315,-14.18026 15.0062,-24.23034 9.7748,-10.05008 23.6797,-15.41931 13.9049,-5.50689 30.7009,-5.50689 17.0714,0 30.9763,5.50689 13.9049,5.5069 23.8173,15.69465 9.9124,10.18776 15.0063,24.23034 5.2316,14.04258 5.2316,30.97628 z m -37.7223,0 q 0,-22.99128 -10.1877,-35.79481 -10.0501,-12.80353 -27.1215,-12.80353 -11.0138,0 -19.4118,5.78224 -8.398,5.64456 -12.9412,16.79603 -4.5432,11.15146 -4.5432,26.02007 0,14.73095 4.4056,25.74474 4.5431,11.01378 12.8035,16.9337 8.398,5.78224 19.6871,5.78224 17.0714,0 27.1215,-12.80353 10.1877,-12.94121 10.1877,-35.65715 z m 67.3218,53.55455 V 228.62162 q 0,-11.28913 4.9562,-17.07137 5.0939,-5.78224 13.6295,-5.78224 8.5357,0 13.7673,5.78224 5.2315,5.64457 5.2315,17.07137 V 391.6257 q 0,11.42681 -5.3692,17.20905 -5.2315,5.64457 -13.6296,5.64457 -8.2603,0 -13.4918,-5.91992 -5.0939,-5.91991 -5.0939,-16.9337 z m 197.4222,-26.29542 q 0,15.55698 -7.572,26.70844 -7.572,11.01379 -22.4406,16.79603 -14.7309,5.64457 -35.9325,5.64457 -20.2378,0 -34.6934,-6.19526 -14.4556,-6.19526 -21.3392,-15.41931 -6.8836,-9.36172 -6.8836,-18.72344 0,-6.19525 4.4055,-10.60077 4.4055,-4.40552 11.1514,-4.40552 5.9199,0 9.0864,2.89112 3.1665,2.89112 6.0576,8.12267 5.7822,10.05009 13.7672,15.00629 8.1227,4.95621 22.0276,4.95621 11.2891,0 18.4481,-4.95621 7.2966,-5.09388 7.2966,-11.56448 0,-9.91241 -7.5719,-14.4556 -7.4344,-4.54318 -24.6434,-8.67335 -19.4118,-4.81854 -31.6646,-10.05009 -12.1152,-5.36922 -19.4118,-14.04258 -7.2967,-8.67336 -7.2967,-21.33921 0,-11.28914 6.746,-21.33922 6.7459,-10.05008 19.8248,-15.97 13.2165,-6.05758 31.8023,-6.05758 14.5933,0 26.1578,3.02879 11.7021,3.02879 19.4118,8.12267 7.8473,5.09388 11.8398,11.28914 4.1302,6.19525 4.1302,12.11516 0,6.47061 -4.4056,10.60078 -4.2678,4.13017 -12.2528,4.13017 -5.7822,0 -9.9124,-3.30414 -3.9925,-3.30414 -9.2241,-9.91241 -4.2678,-5.50689 -10.05,-8.81103 -5.7823,-3.30414 -15.6947,-3.30414 -10.1878,0 -16.9337,4.40552 -6.7459,4.26784 -6.7459,10.73844 0,5.91991 4.9562,9.77474 4.9562,3.71715 13.3542,6.19526 8.398,2.4781 23.1289,6.05758 17.4844,4.26784 28.4982,10.18776 11.1515,5.91991 16.796,14.04258 5.7823,7.98499 5.7823,18.31042 z"
       id="text1"
       style="font-size:281.953px;font-family:'Arial Rounded MT Bold';-inkscape-font-specification:'Arial Rounded MT Bold, ';fill:#137ab8;stroke:#105f8f;stroke-width:11.3386;stroke-opacity:1"
       transform="rotate(90)"
       aria-label="Hybrid CRM Tools " /></g></svg>
