<?xml version="1.0" encoding="UTF-8" standalone="no"?>
<!-- Created with Inkscape (http://www.inkscape.org/) -->

<svg
   width="512"
   height="512"
   viewBox="0 0 512 512"
   version="1.1"
   id="svg1"
   xml:space="preserve"
   inkscape:version="1.3.2 (091e20e, 2023-11-25, custom)"
   sodipodi:docname="logo.svg"
   inkscape:export-filename="HC1.png"
   inkscape:export-xdpi="96"
   inkscape:export-ydpi="96"
   xmlns:inkscape="http://www.inkscape.org/namespaces/inkscape"
   xmlns:sodipodi="http://sodipodi.sourceforge.net/DTD/sodipodi-0.dtd"
   xmlns="http://www.w3.org/2000/svg"
   xmlns:svg="http://www.w3.org/2000/svg"><sodipodi:namedview
     id="namedview1"
     pagecolor="#ffffff"
     bordercolor="#000000"
     borderopacity="0.25"
     inkscape:showpageshadow="2"
     inkscape:pageopacity="0.0"
     inkscape:pagecheckerboard="0"
     inkscape:deskcolor="#d1d1d1"
     inkscape:document-units="mm"
     inkscape:zoom="1.4142136"
     inkscape:cx="432.74935"
     inkscape:cy="318.55161"
     inkscape:window-width="2560"
     inkscape:window-height="1369"
     inkscape:window-x="-8"
     inkscape:window-y="-8"
     inkscape:window-maximized="1"
     inkscape:current-layer="text3"
     showgrid="true"><inkscape:grid
       id="grid5"
       units="px"
       originx="0"
       originy="0"
       spacingx="0.26458333"
       spacingy="0.26458333"
       empcolor="#0099e5"
       empopacity="0.30196078"
       color="#0099e5"
       opacity="0.14901961"
       empspacing="5"
       dotted="false"
       gridanglex="30"
       gridanglez="30"
       visible="true" /></sodipodi:namedview><defs
     id="defs1"><inkscape:path-effect
       effect="bspline"
       id="path-effect32"
       is_visible="true"
       lpeversion="1.3"
       weight="33.333333"
       steps="2"
       helper_size="0"
       apply_no_weight="true"
       apply_with_weight="true"
       only_selected="false"
       uniform="false" /><inkscape:path-effect
       effect="bspline"
       id="path-effect31"
       is_visible="true"
       lpeversion="1.3"
       weight="33.333333"
       steps="2"
       helper_size="0"
       apply_no_weight="true"
       apply_with_weight="true"
       only_selected="false"
       uniform="false" /><inkscape:path-effect
       effect="bspline"
       id="path-effect30"
       is_visible="true"
       lpeversion="1.3"
       weight="33.333333"
       steps="2"
       helper_size="0"
       apply_no_weight="true"
       apply_with_weight="true"
       only_selected="false"
       uniform="false" /><inkscape:path-effect
       effect="bspline"
       id="path-effect29"
       is_visible="true"
       lpeversion="1.3"
       weight="33.333333"
       steps="2"
       helper_size="0"
       apply_no_weight="true"
       apply_with_weight="true"
       only_selected="false"
       uniform="false" /><inkscape:path-effect
       effect="fillet_chamfer"
       id="path-effect28"
       is_visible="true"
       lpeversion="1"
       nodesatellites_param="F,0,0,1,0,0.26458333,0,1 @ F,0,0,1,0,0.26458333,0,1 @ F,0,0,1,0,0.26458333,0,1 @ F,0,0,1,0,0.26458333,0,1"
       radius="1"
       unit="px"
       method="auto"
       mode="F"
       chamfer_steps="1"
       flexible="false"
       use_knot_distance="true"
       apply_no_radius="true"
       apply_with_radius="true"
       only_selected="false"
       hide_knots="false" /><inkscape:path-effect
       effect="fillet_chamfer"
       id="path-effect27"
       is_visible="true"
       lpeversion="1"
       nodesatellites_param="F,0,0,1,0,0.26458333,0,1 @ F,0,0,1,0,0.26458333,0,1 @ F,0,0,1,0,0.26458333,0,1 @ F,0,0,1,0,0.26458333,0,1 @ F,0,0,1,0,0.26458333,0,1 @ F,0,0,1,0,0.26458333,0,1 @ F,0,0,1,0,0.26458333,0,1 @ F,0,0,1,0,0.26458333,0,1 @ F,0,0,1,0,0.26458333,0,1 @ F,0,0,1,0,0.26458333,0,1 @ F,0,0,1,0,0.26458333,0,1 @ F,0,0,1,0,0.26458333,0,1 @ F,0,0,1,0,0.26458333,0,1 @ F,0,0,1,0,0.26458333,0,1 @ F,0,0,1,0,0.26458333,0,1 @ F,0,0,1,0,0.26458333,0,1 @ F,0,0,1,0,0.26458333,0,1 @ F,0,0,1,0,0.26458333,0,1 @ F,0,0,1,0,0.26458333,0,1 @ F,0,0,1,0,0.26458333,0,1 @ F,0,0,1,0,0.26458333,0,1 @ F,0,0,1,0,0.26458333,0,1 @ F,0,0,1,0,0.26458333,0,1 @ F,0,0,1,0,0.26458333,0,1 @ F,0,0,1,0,0.26458333,0,1 @ F,0,0,1,0,0.26458333,0,1 @ F,0,0,1,0,0.26458333,0,1 @ F,0,0,1,0,0.26458333,0,1 @ F,0,0,1,0,0.26458333,0,1 @ F,0,0,1,0,0.26458333,0,1 @ F,0,0,1,0,0.26458333,0,1 @ F,0,0,1,0,0.26458333,0,1 @ F,0,0,1,0,0.26458333,0,1 @ F,0,0,1,0,0.26458333,0,1 @ F,0,0,1,0,0.26458333,0,1 @ F,0,0,1,0,0.26458333,0,1 @ F,0,0,1,0,0.26458333,0,1 @ F,0,0,1,0,0.26458333,0,1 @ F,0,0,1,0,0.26458333,0,1 @ F,0,0,1,0,0.26458333,0,1"
       radius="1"
       unit="px"
       method="auto"
       mode="F"
       chamfer_steps="1"
       flexible="false"
       use_knot_distance="true"
       apply_no_radius="true"
       apply_with_radius="true"
       only_selected="false"
       hide_knots="false" /><inkscape:path-effect
       effect="bspline"
       id="path-effect26"
       is_visible="true"
       lpeversion="1.3"
       weight="33.333333"
       steps="2"
       helper_size="0"
       apply_no_weight="true"
       apply_with_weight="true"
       only_selected="false"
       uniform="false" /><inkscape:path-effect
       effect="bspline"
       id="path-effect2"
       is_visible="true"
       lpeversion="1.3"
       weight="33.333333"
       steps="2"
       helper_size="0"
       apply_no_weight="true"
       apply_with_weight="true"
       only_selected="false"
       uniform="false" /><inkscape:path-effect
       effect="bspline"
       id="path-effect1"
       is_visible="true"
       lpeversion="1.3"
       weight="33.333333"
       steps="2"
       helper_size="0"
       apply_no_weight="true"
       apply_with_weight="true"
       only_selected="false"
       uniform="false" /><inkscape:path-effect
       effect="bspline"
       id="path-effect25"
       is_visible="true"
       lpeversion="1.3"
       weight="33.333333"
       steps="2"
       helper_size="0"
       apply_no_weight="true"
       apply_with_weight="true"
       only_selected="false"
       uniform="false" /><inkscape:path-effect
       effect="bspline"
       id="path-effect24"
       is_visible="true"
       lpeversion="1.3"
       weight="33.333333"
       steps="2"
       helper_size="0"
       apply_no_weight="true"
       apply_with_weight="true"
       only_selected="false"
       uniform="false" /><inkscape:path-effect
       effect="bspline"
       id="path-effect23"
       is_visible="true"
       lpeversion="1.3"
       weight="33.333333"
       steps="2"
       helper_size="0"
       apply_no_weight="true"
       apply_with_weight="true"
       only_selected="false"
       uniform="false" /><inkscape:path-effect
       effect="bspline"
       id="path-effect22"
       is_visible="true"
       lpeversion="1.3"
       weight="33.333333"
       steps="2"
       helper_size="0"
       apply_no_weight="true"
       apply_with_weight="true"
       only_selected="false"
       uniform="false" /><inkscape:path-effect
       effect="bspline"
       id="path-effect21"
       is_visible="true"
       lpeversion="1.3"
       weight="33.333333"
       steps="2"
       helper_size="0"
       apply_no_weight="true"
       apply_with_weight="true"
       only_selected="false"
       uniform="false" /><inkscape:path-effect
       effect="bspline"
       id="path-effect20"
       is_visible="true"
       lpeversion="1.3"
       weight="33.333333"
       steps="2"
       helper_size="0"
       apply_no_weight="true"
       apply_with_weight="true"
       only_selected="false"
       uniform="false" /><inkscape:path-effect
       effect="bspline"
       id="path-effect19"
       is_visible="true"
       lpeversion="1.3"
       weight="33.333333"
       steps="2"
       helper_size="0"
       apply_no_weight="true"
       apply_with_weight="true"
       only_selected="false"
       uniform="false" /><inkscape:path-effect
       effect="bspline"
       id="path-effect18"
       is_visible="true"
       lpeversion="1.3"
       weight="33.333333"
       steps="2"
       helper_size="0"
       apply_no_weight="true"
       apply_with_weight="true"
       only_selected="false"
       uniform="false" /><inkscape:path-effect
       effect="bspline"
       id="path-effect17"
       is_visible="true"
       lpeversion="1.3"
       weight="33.333333"
       steps="2"
       helper_size="0"
       apply_no_weight="true"
       apply_with_weight="true"
       only_selected="false"
       uniform="false" /><inkscape:path-effect
       effect="bspline"
       id="path-effect16"
       is_visible="true"
       lpeversion="1.3"
       weight="33.333333"
       steps="2"
       helper_size="0"
       apply_no_weight="true"
       apply_with_weight="true"
       only_selected="false"
       uniform="false" /><inkscape:path-effect
       effect="bspline"
       id="path-effect15"
       is_visible="true"
       lpeversion="1.3"
       weight="33.333333"
       steps="2"
       helper_size="0"
       apply_no_weight="true"
       apply_with_weight="true"
       only_selected="false"
       uniform="false" /><inkscape:path-effect
       effect="bspline"
       id="path-effect14"
       is_visible="true"
       lpeversion="1.3"
       weight="33.333333"
       steps="2"
       helper_size="0"
       apply_no_weight="true"
       apply_with_weight="true"
       only_selected="false"
       uniform="false" /><inkscape:path-effect
       effect="bspline"
       id="path-effect13"
       is_visible="true"
       lpeversion="1.3"
       weight="33.333333"
       steps="2"
       helper_size="0"
       apply_no_weight="true"
       apply_with_weight="true"
       only_selected="false"
       uniform="false" /><inkscape:path-effect
       effect="bspline"
       id="path-effect12"
       is_visible="true"
       lpeversion="1.3"
       weight="33.333333"
       steps="2"
       helper_size="0"
       apply_no_weight="true"
       apply_with_weight="true"
       only_selected="false"
       uniform="false" /><inkscape:path-effect
       effect="bspline"
       id="path-effect11"
       is_visible="true"
       lpeversion="1.3"
       weight="33.333333"
       steps="2"
       helper_size="0"
       apply_no_weight="true"
       apply_with_weight="true"
       only_selected="false"
       uniform="false" /><inkscape:path-effect
       effect="bspline"
       id="path-effect10"
       is_visible="true"
       lpeversion="1.3"
       weight="33.333333"
       steps="2"
       helper_size="0"
       apply_no_weight="true"
       apply_with_weight="true"
       only_selected="false"
       uniform="false" /><inkscape:path-effect
       effect="bspline"
       id="path-effect9"
       is_visible="true"
       lpeversion="1.3"
       weight="33.333333"
       steps="2"
       helper_size="0"
       apply_no_weight="true"
       apply_with_weight="true"
       only_selected="false"
       uniform="false" /><inkscape:path-effect
       effect="bspline"
       id="path-effect8"
       is_visible="true"
       lpeversion="1.3"
       weight="33.333333"
       steps="2"
       helper_size="0"
       apply_no_weight="true"
       apply_with_weight="true"
       only_selected="false"
       uniform="false" /><inkscape:path-effect
       effect="bspline"
       id="path-effect7"
       is_visible="true"
       lpeversion="1.3"
       weight="33.333333"
       steps="2"
       helper_size="0"
       apply_no_weight="true"
       apply_with_weight="true"
       only_selected="false"
       uniform="false" /><inkscape:path-effect
       effect="bspline"
       id="path-effect6"
       is_visible="true"
       lpeversion="1.3"
       weight="33.333333"
       steps="2"
       helper_size="0"
       apply_no_weight="true"
       apply_with_weight="true"
       only_selected="false"
       uniform="false" /><inkscape:path-effect
       effect="bspline"
       id="path-effect5"
       is_visible="true"
       lpeversion="1.3"
       weight="33.333333"
       steps="2"
       helper_size="0"
       apply_no_weight="true"
       apply_with_weight="true"
       only_selected="false"
       uniform="false" /><inkscape:path-effect
       effect="bspline"
       id="path-effect4"
       is_visible="true"
       lpeversion="1.3"
       weight="33.333333"
       steps="2"
       helper_size="0"
       apply_no_weight="true"
       apply_with_weight="true"
       only_selected="false"
       uniform="false" /><inkscape:path-effect
       effect="bspline"
       id="path-effect3"
       is_visible="true"
       lpeversion="1.3"
       weight="33.333333"
       steps="2"
       helper_size="0"
       apply_no_weight="true"
       apply_with_weight="true"
       only_selected="false"
       uniform="false" /></defs><g
     id="text3"
     transform="rotate(-90)"
     style="fill:#2b329c;fill-opacity:1;stroke:#000000;stroke-width:0.2;stroke-linecap:round;stroke-linejoin:round;stroke-dasharray:none;stroke-opacity:0.762563;paint-order:stroke fill markers"
     inkscape:label="Tests"><path
       style="color:#000000;-inkscape-font-specification:'Ink Free';display:inline;fill:#137ab8;fill-opacity:1;stroke:#105f8f;stroke-width:11.33858268;stroke-linecap:butt;stroke-linejoin:miter;stroke-dasharray:none;stroke-opacity:1;paint-order:stroke fill markers"
       d="m -266.17688,63.420422 c -5.97119,0 -12.22354,2.155657 -16.91331,5.907472 -5.23772,4.190126 -8.72895,11.583813 -8.72895,18.2359 0,7.688102 -1.57933,31.152446 -4.81832,67.777786 -0.006,0.0499 -0.008,0.10053 -0.0153,0.15046 l -2.21985,28.92536 c -0.78021,7.80135 -1.65017,19.70799 -2.64515,35.8442 -0.002,0.0397 -0.008,0.0492 -0.008,0.088 -2.03437,25.01502 -3.24001,36.98928 -4.21665,45.91133 -35.57207,4.11926 -61.95091,6.51871 -80.79606,7.56719 l 1.91142,-51.5594 c 0.37403,-7.65728 0.93662,-18.73746 1.6856,-33.2198 l -0.0153,0.29042 c 1.25682,-17.09181 1.90867,-28.20138 1.90867,-34.70317 0,-6.08913 -0.5729,-11.84301 -1.85164,-17.27639 -0.80987,-3.44412 -2.05678,-7.04703 -5.12422,-10.52349 -3.06747,-3.47648 -8.62361,-6.08382 -13.41764,-6.08382 -6.67377,0 -13.47526,2.57628 -18.5575,6.78918 -5.5228,4.54197 -8.96235,12.25031 -8.96235,19.22652 v 13.86364 c 7.6e-4,0.0964 0.002,0.19361 0.006,0.29043 0.49758,22.86171 0.74722,48.7508 0.74722,77.65297 0,9.1664 -0.69392,23.31693 -1.37962,37.37944 -5.80241,-0.1189 -10.61657,-0.14466 -18.18406,-0.43564 -0.0847,-0.002 -0.17272,-0.006 -0.25896,-0.006 l -19.85919,-0.37334 c -0.0845,-0.002 -0.17004,-0.006 -0.25388,-0.006 -6.29684,0 -13.0296,0.13951 -19.09165,6.6232 -4.7291,4.57145 -6.55063,11.06421 -6.55063,16.39987 0,7.93899 4.24524,16.60775 10.80884,21.29597 0.0508,0.0363 0.10325,0.0727 0.15554,0.10897 5.73656,3.97147 12.70508,5.73632 19.54811,5.73632 9.78344,0 20.0232,-0.86231 30.47095,-2.11092 -0.22766,4.20063 -0.31566,5.90637 -0.63299,11.71641 -0.74215,13.59704 -1.73336,27.70644 -2.97199,42.32223 -0.008,0.11393 -0.0153,0.22813 -0.0153,0.3423 -0.21326,3.62218 -0.79461,8.817 -1.75814,15.32104 -0.0508,0.35279 -0.0845,0.70755 -0.10916,1.06325 -0.23694,3.55184 -0.60084,7.78864 -1.0892,12.67593 -0.002,0.0202 -0.002,0.0416 -0.006,0.0618 -0.51705,5.42432 -0.80902,9.26772 -0.80902,12.49957 0,5.80894 1.04807,11.55737 3.46976,16.80442 0.1126,0.24754 0.23441,0.49133 0.3622,0.73125 2.99991,5.57137 9.80771,11.85642 18.05956,11.85642 6.83202,0 10.94838,-2.66833 15.14987,-5.57036 5.16932,-3.34254 11.24441,-8.75233 11.24441,-17.82617 0,-3.64545 -0.59576,-6.72563 -1.46265,-10.48198 l 0.18607,0.96985 c -0.43749,-2.84298 -0.59659,-4.95838 -0.59659,-5.85038 0,-4.19234 0.60507,-19.08719 1.85156,-42.76827 1.01016,-19.18767 1.88288,-34.31623 2.72811,-48.74317 8.86063,-0.62461 17.34045,-1.18945 29.92645,-2.44807 17.48702,-1.74868 28.73184,-2.87162 33.7281,-3.37125 0.14371,-0.0153 0.28774,-0.0321 0.43076,-0.0515 5.54995,-0.73994 10.31268,-1.1084 15.46629,-1.65969 -0.47983,7.93273 -0.8361,14.98829 -1.60262,24.95249 -1.23948,16.1133 -2.37251,27.64984 -3.27791,33.98741 -0.0153,0.13817 -0.034,0.27628 -0.0508,0.41491 -0.32073,2.88737 -1.02057,4.46894 -1.60268,5.34215 -1.18813,1.78215 -2.18018,3.38522 -3.0756,5.17617 -0.89547,1.79097 -2.15248,3.2589 -2.15248,8.18436 0,6.76318 1.83813,13.14274 4.69908,20.29496 0.034,0.0821 0.0677,0.1626 0.0981,0.24378 1.68334,3.97895 3.4298,7.42043 6.2135,10.71023 2.78363,3.2898 7.65323,7.13669 14.25778,7.13669 7.51399,0 15.68423,-4.68126 19.67259,-10.84506 3.98832,-6.16383 5.33598,-12.89054 5.9334,-20.5076 v -0.006 l 2.24577,-28.85278 c 0.006,-0.0695 0.01,-0.13836 0.0153,-0.20741 l 0.73641,-11.76311 1.09953,-11.38963 c 0.008,-0.0744 0.0153,-0.14867 0.0221,-0.22306 0.50022,-6.25238 1.12787,-14.12356 1.87754,-23.61953 0.40331,-5.10821 0.54633,-9.3587 0.80916,-13.9985 0.16641,-0.006 0.17767,-0.002 0.34747,-0.01 0.16259,-0.008 0.32521,-0.0172 0.4876,-0.0313 7.22211,-0.55557 47.38954,-7.29125 53.25233,-9.23068 4.15346,-1.28315 8.23644,-3.14323 11.79422,-6.70101 3.6135,-3.61352 6.04749,-9.36348 6.04749,-14.54307 0,-6.37807 -2.3771,-8.53649 -3.95213,-10.59613 -1.57501,-2.0596 -3.23027,-3.71824 -5.19174,-5.52885 -4.49442,-4.14868 -9.81472,-8.0184 -17.62388,-8.0184 -2.75305,0 -39.0184,5.99794 -41.56186,6.58036 0.41313,-5.57473 0.63426,-8.18716 1.20328,-16.15091 l 0.0153,-0.18664 c 1.49703,-17.47111 2.99533,-35.79659 4.49154,-54.99814 0.002,-0.0288 0.002,-0.0592 0.006,-0.0882 0.20098,-2.81342 1.72947,-20.53796 4.45526,-51.26901 l 0.0221,-0.21257 c 2.48627,-23.63314 3.80174,-37.546889 3.80174,-45.019227 0,-5.509818 -0.38793,-10.519736 -3.1586,-15.907135 -2.7777,-5.387358 -10.32245,-10.481968 -16.87369,-10.481968 z m 142.11346,65.946928 c -15.31711,0 -29.68073,7.6073 -42.25481,19.89559 -0.0363,0.0364 -0.0728,0.0728 -0.10889,0.10891 -11.90648,11.9065 -22.16469,26.58726 -30.92737,43.84705 -0.0134,0.0237 -0.0237,0.049 -0.0365,0.0727 -8.47654,16.95301 -15.7321,36.60422 -21.90798,58.9918 -6.2348,22.60126 -9.47061,43.20776 -9.47061,61.98437 0,27.72901 8.28232,51.27005 25.68377,67.14504 0.0328,0.0279 0.0653,0.0559 0.0985,0.0828 16.82737,15.05604 38.94332,22.49405 63.93458,22.49405 23.99386,0 46.631161,-7.73969 66.403348,-22.49924 0.0313,-0.0221 0.06178,-0.0448 0.09325,-0.0677 18.524424,-14.08898 33.569384,-28.78404 44.993292,-44.28789 0.07786,-0.1042 0.153763,-0.20978 0.228232,-0.3164 2.475069,-3.57509 4.452389,-6.73679 6.016392,-9.86481 1.564008,-3.12802 3.091181,-5.95506 3.091181,-11.18742 0,-3.10494 0.538969,-6.20115 -2.982255,-11.48297 -3.898916,-5.84834 -10.333384,-7.03816 -14.045173,-7.03816 -8.494676,0 -10.815596,4.18402 -12.888568,6.60246 -2.072971,2.4185 -3.648271,4.9193 -5.383635,7.95619 -1.374349,2.28695 -2.502148,4.12386 -3.231218,5.26951 -0.191244,0.30068 -0.403995,0.51078 -0.653465,0.80908 -13.512094,12.68687 -27.103896,23.05578 -40.740325,31.01037 -0.02788,0.0153 -0.05494,0.0313 -0.08304,0.0466 -12.672446,7.51753 -26.576006,11.25999 -42.690456,11.25999 -9.33801,0 -16.69883,-2.10246 -23.20462,-6.17199 -6.51104,-4.23033 -11.3727,-9.61698 -15.1136,-16.85109 -3.52834,-7.30427 -5.3629,-15.36662 -5.3629,-24.78131 0,-15.08039 1.97124,-30.88057 5.99566,-47.45172 4.08324,-16.81338 9.09573,-31.77982 14.95282,-44.9051 7.47033,-16.47345 15.07981,-28.27576 21.86127,-35.25815 6.7874,-6.98847 11.89138,-8.99346 16.61252,-8.99346 1.30022,0 1.90605,0.0974 3.66688,1.62339 0.13256,0.115 0.26751,0.22738 0.40459,0.33714 1.63991,1.31192 2.35345,2.37482 2.94596,4.6264 0.0101,0.0381 0.0221,0.0753 0.0313,0.11407 1.16297,4.26422 1.77898,8.93464 1.38588,12.74989 -0.3931,3.81525 -0.47312,4.05575 -0.54554,4.29828 -0.85444,2.84822 -1.68564,3.51224 -1.68564,8.68749 0,3.09119 0.68806,7.50097 4.10777,11.34817 3.41972,3.84717 8.67884,5.30064 12.16761,5.30064 7.138387,0 9.472551,-3.21761 11.265188,-5.01022 1.792619,-1.79261 3.001555,-3.47539 4.284073,-5.39919 2.723973,-4.08594 4.866111,-8.65753 6.64398,-13.66135 2.202327,-5.73897 3.454236,-11.70038 3.454236,-17.68612 0,-13.74416 -3.81481,-26.60755 -11.690463,-36.84524 -8.111855,-10.86407 -21.423014,-16.90294 -35.315204,-16.90294 z m 19.53771,27.6443 0.39942,0.33198 c -0.0652,-0.0567 -0.15724,-0.0787 -0.22307,-0.13482 -0.0686,-0.0559 -0.088,-0.19708 -0.17628,-0.19708 z m -183.67838,216.05592 -0.0508,0.41491 c 0.008,-0.0676 0.0153,-0.24804 0.034,-0.31642 0.002,-0.034 0.0153,-0.0653 0.0153,-0.0985 z"
       id="path11"
       sodipodi:nodetypes="csscccsccccccsssscsccsccccccsccscsccccccsccscsccsscscccsccsssccssscccccccsccccsssssccsccccsscccccscssccsccccssssscscccsccsscssccccccssssscsccccccscccccc"
       inkscape:label="HC5" /></g></svg>
